<?xml version="1.0" encoding="UTF-8" standalone="no"?>
<svg
   xmlns:dc="http://purl.org/dc/elements/1.1/"
   xmlns:cc="http://creativecommons.org/ns#"
   xmlns:rdf="http://www.w3.org/1999/02/22-rdf-syntax-ns#"
   xmlns:svg="http://www.w3.org/2000/svg"
   xmlns="http://www.w3.org/2000/svg"
   viewBox="0 0 1738.5867 1681.8933"
   height="1681.8933"
   width="1738.5867"
   xml:space="preserve"
   id="svg2"
   version="1.1"><metadata
     id="metadata8"><rdf:RDF><cc:Work
         rdf:about=""><dc:format>image/svg+xml</dc:format><dc:type
           rdf:resource="http://purl.org/dc/dcmitype/StillImage" /></cc:Work></rdf:RDF></metadata><defs
     id="defs6" /><g
     transform="matrix(1.3333333,0,0,-1.3333333,0,1681.8933)"
     id="g10"><g
       transform="scale(0.1)"
       id="g12"><path
         id="path14"
         style="fill:#0e98bc;fill-opacity:1;fill-rule:nonzero;stroke:none"
         d="m 13039.4,9779.56 c 0,1565.54 -1269.1,2834.64 -2834.7,2834.64 -834.6,0 -1584.91,-360.8 -2103.65,-934.8 -647.57,237.9 -1347.33,367.9 -2077.43,367.9 C 2696.86,12047.3 0,9350.4 0,6023.65 0,2696.9 2696.86,0 6023.62,0 c 3326.76,0 6023.58,2696.9 6023.58,6023.65 0,503.88 -61.9,993.26 -178.5,1461.05 709.3,515.22 1170.7,1351.1 1170.7,2294.86" /><path
         id="path16"
         style="fill:#ffffff;fill-opacity:1;fill-rule:nonzero;stroke:none"
         d="m 3599.18,5344.06 h 87.42 c 151.24,0 200.77,-71.72 200.77,-231.54 0,-210.18 -118.18,-245.85 -288.19,-238.77 z m -1.42,-753.49 41.44,-4.6 59.09,-2.85 c 326.16,0 541.24,191.39 541.24,524.63 0,574.17 -529.39,526.93 -604.93,526.93 H 3268.29 V 3852.96 h 330.89 c 0,0 0,682.55 0,702.56 0,20.01 -1.42,35.05 -1.42,35.05" /><path
         id="path18"
         style="fill:#ffffff;fill-opacity:1;fill-rule:nonzero;stroke:none"
         d="m 3373.64,7586.63 h 87.4 c 151.24,0 200.78,-71.73 200.78,-231.55 0,-210.18 -118.18,-245.85 -288.18,-238.77 z m -1.43,-753.49 41.44,-4.61 59.09,-2.85 c 326.16,0 541.24,191.4 541.24,524.63 0,574.17 -529.39,526.94 -604.93,526.94 H 3042.73 V 6095.52 h 330.91 c 0,0 0,682.56 0,702.57 0,20 -1.43,35.05 -1.43,35.05" /><path
         id="path20"
         style="fill:#ffffff;fill-opacity:1;fill-rule:nonzero;stroke:none"
         d="m 4789.29,6426.55 -282.68,-0.1 v 1450.8 H 4154.44 V 6095.52 h 546.23 l 88.62,331.03" /><path
         id="path22"
         style="fill:#ffffff;fill-opacity:1;fill-rule:nonzero;stroke:none"
         d="m 5313.93,6665.95 c 0,0 2.84,2.84 8.5,35.3 1.38,7.96 79.95,448.29 79.95,448.29 l 49.96,317.19 2.43,0.23 50.07,-323.09 c 0,0 92.35,-438.72 93.7,-445.36 6.07,-29.72 8.91,-32.56 8.91,-32.56 0,0 -14.18,2.84 -37.45,2.84 -5.09,0 -167.62,0 -218.24,0 -23.65,0 -37.83,-2.84 -37.83,-2.84 z m 406,-570.43 h 358.69 l -427.7,1781.73 H 5279.99 L 4866.45,6095.52 h 332.69 l 63.85,300.16 h 390.78 l 66.16,-300.16" /><path
         id="path24"
         style="fill:#ffffff;fill-opacity:1;fill-rule:nonzero;stroke:none"
         d="m 7332.65,6095.52 v 1781.73 h -352.01 v -801.1 c 0,-92.15 7.07,-184.31 28.3,-269.39 l -4.76,-4.61 -439.55,1075.1 H 6226.78 V 6095.52 h 352.16 v 817.71 l -2.46,73.23 -16.47,179.54 4.62,4.77 434.93,-1075.25 h 333.09" /><path
         id="path26"
         style="fill:#ffffff;fill-opacity:1;fill-rule:nonzero;stroke:none"
         d="m 8315.13,7546.47 v 330.78 H 7606.2 V 6095.52 h 713.7 v 330.93 h -361.55 v 401.7 h 314.16 v 330.78 h -314.16 v 387.54 h 356.78" /><path
         id="path28"
         style="fill:#ffffff;fill-opacity:1;fill-rule:nonzero;stroke:none"
         d="m 8512.07,7546.47 h 276.46 V 6095.52 h 352.16 v 1450.95 h 278.77 v 330.78 h -907.39 v -330.78" /><path
         id="path30"
         style="fill:#ffffff;fill-opacity:1;fill-rule:nonzero;stroke:none"
         d="m 6234.03,5336.98 c 233.85,0 250.46,-434.77 250.46,-593.08 0,-141.85 -16.61,-593.09 -250.46,-593.09 -234.01,0 -250.62,451.24 -250.62,593.09 0,158.31 16.61,593.08 250.62,593.08 z m 0,-1512.33 c 314.16,0 626.16,250.46 626.16,919.25 0,668.63 -312,919.25 -626.16,919.25 -314.32,0 -626.32,-250.62 -626.32,-919.25 0,-668.79 312,-919.25 626.32,-919.25" /><path
         id="path32"
         style="fill:#ffffff;fill-opacity:1;fill-rule:nonzero;stroke:none"
         d="m 7634.52,5336.98 c 233.85,0 250.46,-434.77 250.46,-593.08 0,-141.85 -16.61,-593.09 -250.46,-593.09 -234.01,0 -250.62,451.24 -250.62,593.09 0,158.31 16.61,593.08 250.62,593.08 z m 0,-1512.33 c 314.16,0 626.16,250.46 626.16,919.25 0,668.63 -312,919.25 -626.16,919.25 -314.32,0 -626.32,-250.62 -626.32,-919.25 0,-668.79 312,-919.25 626.32,-919.25" /><path
         id="path34"
         style="fill:#ffffff;fill-opacity:1;fill-rule:nonzero;stroke:none"
         d="m 8447.45,3852.96 h 352.17 v 739.7 h 323.69 v 330.78 h -323.69 v 380.47 h 359.08 v 330.77 H 8447.45 V 3852.96" /><path
         id="path36"
         style="fill:#ffffff;fill-opacity:1;fill-rule:nonzero;stroke:none"
         d="m 4749.98,4873.75 v 470.31 h 87.4 c 151.24,0 200.78,-71.72 200.78,-231.54 0,-210.18 -118.18,-245.85 -288.18,-238.77 z m 371.73,-210.72 c 5.21,2.88 14.31,6.38 19.37,9.39 165.19,97.96 258.63,261.63 258.63,451.95 0,486.77 -401.7,510.31 -626.17,510.31 H 4419.07 V 3852.96 h 330.91 c 0,0 0,732.43 0,744.37 0,29.65 -4.18,58.55 -3.52,60.66 0.67,2.12 12.23,-5.06 19,-22.67 6.78,-17.6 334.11,-782.36 334.11,-782.36 h 356.9 c 0,0 -307.59,755.3 -314.41,771.28 -6.8,15.97 -20.35,38.79 -20.35,38.79" /><path
         id="path38"
         style="fill:#ffffff;fill-opacity:1;fill-rule:nonzero;stroke:none"
         d="m 9675.56,8567.89 50.35,757.35 -759.46,34.43 c 266.48,-234.57 504.76,-500.41 709.11,-791.78" /><path
         id="path40"
         style="fill:#ffffff;fill-opacity:1;fill-rule:nonzero;stroke:none"
         d="m 10057.3,11464 c -928.44,0 -1696.32,-686.7 -1823.84,-1579.81 154.05,-88.23 302.32,-185.39 444.13,-290.74 l 995.52,251.61 -274.19,995.14 7.06,3.7 c 59.79,31.9 122.85,59.7 187.44,82.7 l 7.54,2.6 550.24,-873.3 861.4,568.2 5.8,-5.6 c 24.7,-23.9 48.6,-48.8 71.2,-74 22.5,-25.2 44.6,-51.8 65.6,-79 l 4.9,-6.4 -660.7,-792.7 806.6,-644.12 -3.5,-7.2 c -29.8,-61.22 -64.4,-120.72 -103,-176.85 l -4.5,-6.59 -958.4,383.19 L 9876.14,8255 c 89.2,-152.79 169.56,-311.34 240.46,-474.97 990.1,31.34 1783.2,843.74 1783.2,1841.47 0,1017.6 -824.9,1842.5 -1842.5,1842.5" /><path
         id="path42"
         style="fill:#ffffff;fill-opacity:1;fill-rule:nonzero;stroke:none"
         d="m 6301.35,1897.1 c -2348.29,0 -4251.97,1903.66 -4251.97,4251.96 0,2145.98 1586.26,3920.34 3652.33,4210.24 6.85,0.9 25,3.7 25,3.7 0,0 -1.87,-8.1 -3.42,-18.8 -18.83,-129.8 -34.02,-243.7 -34.65,-248.9 l 1152.88,192.1 -1064.06,444.4 c 0,0 -16.31,-116.6 -34.96,-250 -0.86,-6.2 -1.41,-20 -1.41,-20 0,0 -15.43,0.5 -22.55,0.1 -2326.11,-154.1 -4165.22,-2089.47 -4165.22,-4454.57 0,-2465.72 1998.86,-4464.53 4464.57,-4464.53 1935.63,0 3583.49,1231.81 4202.61,2954.28 C 9575.71,2969.35 8063.76,1897.1 6301.35,1897.1" /><path
         id="path44"
         style="fill:#ffffff;fill-opacity:1;fill-rule:nonzero;stroke:none"
         d="m 577.754,6136.68 c -23.149,-19.49 -38.535,-50.02 -39.145,-87.73 -0.605,-37.72 13.77,-69.72 36.278,-89.94 29.347,-27.28 61.988,-34.77 197.972,-36.96 135.985,-2.2 168.852,4.23 199.059,30.54 23.148,19.49 38.552,51.01 39.162,88.73 0.61,37.71 -13.779,68.73 -36.291,88.95 -29.344,27.28 -61.973,35.75 -197.957,37.94 -135.984,2.2 -168.867,-5.22 -199.078,-31.53 z m 482.056,94.48 c 48.83,-50.43 75.65,-111.43 74.35,-191.83 -1.3,-80.4 -30.08,-141.49 -80.51,-190.31 -72.619,-70.32 -160.931,-66.91 -283.021,-64.94 -122.082,1.97 -210.457,1.41 -280.77,74.03 -48.828,50.43 -75.625,112.42 -74.328,192.82 1.293,80.4 30.063,140.5 80.5,189.33 72.617,70.31 160.942,67.89 283.028,65.92 122.089,-1.97 210.445,-2.4 280.751,-75.02" /><path
         id="path46"
         style="fill:#ffffff;fill-opacity:1;fill-rule:nonzero;stroke:none"
         d="m 1203.79,6881.69 c 0,0 -388.52,-176.13 -427.017,-193.18 -38.496,-17.04 -54.433,-22.98 -54.433,-22.98 0,0 14.64,2.54 53.098,-2.95 38.464,-5.49 387.002,-57.79 387.002,-57.79 l -20.38,-136.48 -699.122,104.4 18.183,121.76 c 0,0 371.348,168.54 417.375,189.33 46.031,20.79 61.969,27.67 61.969,27.67 0,0 -16.594,-2.98 -59.391,3.35 -42.797,6.33 -378.597,56.54 -378.597,56.54 l 20.378,136.49 699.115,-104.41 -18.18,-121.75" /><path
         id="path48"
         style="fill:#ffffff;fill-opacity:1;fill-rule:nonzero;stroke:none"
         d="m 880.176,7900.12 550.264,-194.87 -46.07,-130.08 -550.265,194.87 -61.644,-174.06 -116.039,41.1 169.355,478.2 116.043,-41.09 -61.644,-174.07" /><path
         id="path50"
         style="fill:#ffffff;fill-opacity:1;fill-rule:nonzero;stroke:none"
         d="m 1719.5,8343.3 -263.19,135.1 -109.25,-212.85 263.18,-135.09 -63.01,-122.76 -628.824,322.77 63.016,122.76 257.008,-131.92 109.25,212.85 -257,131.92 63.01,122.76 628.82,-322.77 -63.01,-122.77" /><path
         id="path52"
         style="fill:#ffffff;fill-opacity:1;fill-rule:nonzero;stroke:none"
         d="m 1883.87,8629 -579.18,405.23 266.94,381.51 100.86,-70.57 -187.82,-268.44 135.85,-95.05 159.93,228.57 100.87,-70.57 -159.93,-228.58 140.72,-98.46 187.82,268.44 100.87,-70.58 -266.93,-381.5" /><path
         id="path54"
         style="fill:#ffffff;fill-opacity:1;fill-rule:nonzero;stroke:none"
         d="m 2865.32,9753.25 -84.27,-78.48 c 0,0 -350.08,203.34 -366.06,212.78 -15.99,9.44 -29.74,21.52 -29.74,21.52 0,0 11.3,-14.97 19.2,-31.23 7.89,-16.27 186.27,-380.33 186.27,-380.33 l -84.27,-78.49 -619.76,388.71 105.34,98.1 c 0,0 313.78,-205.68 344.13,-225.8 30.34,-20.13 47.84,-35.96 47.84,-35.96 0,0 -13.83,21.15 -29.21,51.41 -15.37,30.26 -188.4,372.72 -188.4,372.72 l 75.55,70.4 c 0,0 330.82,-197.91 361.02,-216.01 30.21,-18.1 45.21,-29.77 45.21,-29.77 0,0 -14.41,18.63 -35.54,57.02 -21.13,38.4 -195.61,351.76 -195.61,351.76 l 105.34,98.1 342.96,-646.45" /><path
         id="path56"
         style="fill:#ffffff;fill-opacity:1;fill-rule:nonzero;stroke:none"
         d="m 3004.42,10481.4 c 0,0 4.91,-12.3 8.71,-26.1 2.94,-10.7 49.47,-185.6 56.53,-212.7 7.05,-27.1 7.26,-30.6 7.26,-30.6 0,0 1.75,2.6 21.5,15.8 19.75,13.1 94.78,64 106.58,72 16.3,10.9 19.63,12.2 19.63,12.2 0,0 -3.4,1.2 -22.64,15.9 -19.24,14.7 -168.09,128.5 -176.98,135.3 -11.21,8.6 -20.59,18.2 -20.59,18.2 z m 418.58,-325.5 -104.57,80.3 -208.12,-140.6 34.65,-127.53 -119.28,-80.58 -182.62,729.61 89.66,60.6 609.56,-441.2 -119.28,-80.6" /><path
         id="path58"
         style="fill:#ffffff;fill-opacity:1;fill-rule:nonzero;stroke:none"
         d="m 3724.78,10653.4 131.93,-258.1 -121.98,-62.3 -131.93,258.1 -378.93,274.6 133.48,68.2 c 0,0 194.24,-151.9 218.99,-171.5 24.75,-19.6 32.66,-30 32.66,-30 0,0 -4.42,12.1 -5.95,42.5 -1.55,30.4 -12.34,278.3 -12.34,278.3 l 133.47,68.2 0.6,-468" /><path
         id="path60"
         style="fill:#ffffff;fill-opacity:1;fill-rule:nonzero;stroke:none"
         d="m 4495.25,11266.6 169.21,-558.7 -132.07,-40 -169.22,558.7 -176.72,-53.6 -35.69,117.9 485.53,147 35.69,-117.8 -176.73,-53.5" /><path
         id="path62"
         style="fill:#ffffff;fill-opacity:1;fill-rule:nonzero;stroke:none"
         d="m 5188,11386.8 c -23.4,19.2 -56.23,28.7 -93.42,22.4 -37.19,-6.3 -66.02,-26.3 -81.77,-52.2 -21.44,-33.8 -22.81,-67.3 -0.04,-201.3 22.77,-134.1 35.1,-165.3 66.51,-190.1 23.4,-19.2 57.21,-28.6 94.4,-22.3 37.19,6.3 65.04,26.2 80.79,52 21.44,33.9 23.78,67.5 1.02,201.6 -22.77,134 -36.08,165 -67.49,189.9 z m 181.23,-456.6 c -40.63,-57.2 -95.67,-94.8 -174.95,-108.2 -79.27,-13.5 -144.6,3.6 -201.85,44.2 -82.43,58.5 -95.26,146 -115.7,266.4 -20.44,120.3 -37.18,207.1 21.32,289.5 40.63,57.3 96.65,95 175.92,108.4 79.28,13.5 143.63,-3.8 200.88,-44.4 82.43,-58.5 96.24,-145.8 116.68,-266.1 20.44,-120.4 36.2,-207.4 -22.3,-289.8" /></g></g></svg>