<svg width="65" height="65" viewBox="0 0 65 65" fill="none" xmlns="http://www.w3.org/2000/svg">
<circle cx="32.5" cy="32.5" r="30.5" fill="white" stroke="#58694C" stroke-width="2"/>
<circle cx="32.5" cy="32.5" r="32" stroke="white"/>
<path d="M32.4987 37.18C31.4787 37.18 30.5787 36.95 29.7987 36.49C29.0187 36.03 28.4087 35.395 27.9687 34.585C27.5287 33.765 27.3087 32.82 27.3087 31.75C27.3087 30.68 27.5287 29.74 27.9687 28.93C28.4087 28.11 29.0187 27.47 29.7987 27.01C30.5787 26.55 31.4787 26.32 32.4987 26.32C33.5287 26.32 34.4337 26.55 35.2137 27.01C35.9937 27.47 36.5987 28.11 37.0287 28.93C37.4687 29.74 37.6887 30.68 37.6887 31.75C37.6887 32.82 37.4687 33.765 37.0287 34.585C36.5987 35.395 35.9937 36.03 35.2137 36.49C34.4337 36.95 33.5287 37.18 32.4987 37.18ZM32.4987 35.365C33.1387 35.365 33.6887 35.22 34.1487 34.93C34.6187 34.63 34.9837 34.21 35.2437 33.67C35.5037 33.13 35.6337 32.49 35.6337 31.75C35.6337 31 35.5037 30.36 35.2437 29.83C34.9837 29.29 34.6187 28.875 34.1487 28.585C33.6887 28.295 33.1387 28.15 32.4987 28.15C31.8687 28.15 31.3187 28.295 30.8487 28.585C30.3787 28.875 30.0137 29.29 29.7537 29.83C29.4937 30.36 29.3637 31 29.3637 31.75C29.3637 32.49 29.4937 33.13 29.7537 33.67C30.0137 34.21 30.3787 34.63 30.8487 34.93C31.3187 35.22 31.8687 35.365 32.4987 35.365Z" fill="#58694C"/>
<line x1="32.5" y1="18.5" x2="32.5" y2="9.5" stroke="#58694C" stroke-linecap="round"/>
<line x1="32.5" y1="55.5" x2="32.5" y2="46.5" stroke="#58694C" stroke-linecap="round"/>
<line x1="9.5" y1="31.5" x2="18.5" y2="31.5" stroke="#58694C" stroke-linecap="round"/>
<path d="M56.75 31.5003L44.875 36.4587L47.375 31.5003L44.875 26.542L56.75 31.5003Z" fill="#58694C" stroke="#58694C" stroke-width="0.5" stroke-linecap="round" stroke-linejoin="round"/>
</svg>
