<svg width="13" height="13" viewBox="0 0 13 13" fill="none" xmlns="http://www.w3.org/2000/svg">
<path d="M2.70833 10.2917H3.48021L8.775 4.99688L8.00313 4.225L2.70833 9.51979V10.2917ZM1.625 11.375V9.07292L8.775 1.93646C8.88333 1.83715 9.00295 1.76042 9.13385 1.70625C9.26476 1.65208 9.40243 1.625 9.54688 1.625C9.69132 1.625 9.83125 1.65208 9.96667 1.70625C10.1021 1.76042 10.2194 1.84167 10.3188 1.95L11.0635 2.70833C11.1719 2.80764 11.2509 2.925 11.3005 3.06042C11.3502 3.19583 11.375 3.33125 11.375 3.46667C11.375 3.61111 11.3502 3.74878 11.3005 3.87969C11.2509 4.01059 11.1719 4.13021 11.0635 4.23854L3.92708 11.375H1.625ZM8.38229 4.61771L8.00313 4.225L8.775 4.99688L8.38229 4.61771Z" fill="#1D1B20"/>
</svg>
