<svg width="16" height="16" viewBox="0 0 16 16" fill="none" xmlns="http://www.w3.org/2000/svg">
<g clip-path="url(#clip0_1750_1517)">
<path d="M7.33301 2.66617H2.66634C2.31272 2.66617 1.97358 2.80664 1.72353 3.05669C1.47348 3.30674 1.33301 3.64588 1.33301 3.9995V13.3328C1.33301 13.6865 1.47348 14.0256 1.72353 14.2756C1.97358 14.5257 2.31272 14.6662 2.66634 14.6662H11.9997C12.3533 14.6662 12.6924 14.5257 12.9425 14.2756C13.1925 14.0256 13.333 13.6865 13.333 13.3328V8.66617M12.333 1.66617C12.5982 1.40095 12.9579 1.25195 13.333 1.25195C13.7081 1.25195 14.0678 1.40095 14.333 1.66617C14.5982 1.93138 14.7472 2.29109 14.7472 2.66617C14.7472 3.04124 14.5982 3.40095 14.333 3.66617L7.99967 9.9995L5.33301 10.6662L5.99967 7.9995L12.333 1.66617Z" stroke="#1E1E1E" stroke-width="1.6" stroke-linecap="round" stroke-linejoin="round"/>
</g>
<defs>
<clipPath id="clip0_1750_1517">
<rect width="16" height="16" fill="white"/>
</clipPath>
</defs>
</svg>
