<svg width="11" height="11" viewBox="0 0 11 11" fill="none" xmlns="http://www.w3.org/2000/svg">
<g clip-path="url(#clip0_1178_1033)">
<path d="M10.0834 8.70833C10.0834 8.95145 9.98678 9.18461 9.81487 9.35651C9.64296 9.52842 9.4098 9.625 9.16669 9.625H1.83335C1.59024 9.625 1.35708 9.52842 1.18517 9.35651C1.01326 9.18461 0.916687 8.95145 0.916687 8.70833V2.29167C0.916687 2.04855 1.01326 1.81539 1.18517 1.64349C1.35708 1.47158 1.59024 1.375 1.83335 1.375H4.12502L5.04169 2.75H9.16669C9.4098 2.75 9.64296 2.84658 9.81487 3.01849C9.98678 3.19039 10.0834 3.42355 10.0834 3.66667V8.70833Z" stroke="#1E1E1E" stroke-linecap="round" stroke-linejoin="round"/>
</g>
<defs>
<clipPath id="clip0_1178_1033">
<rect width="11" height="11" fill="white"/>
</clipPath>
</defs>
</svg>
