<svg width="14" height="14" viewBox="0 0 14 14" fill="none" xmlns="http://www.w3.org/2000/svg">
<path d="M13.4163 2.33391V5.83391M13.4163 5.83391H9.91634M13.4163 5.83391L10.7097 3.29057C10.0827 2.66332 9.30712 2.20511 8.4552 1.95869C7.60328 1.71227 6.70282 1.68568 5.83784 1.88139C4.97286 2.0771 4.17156 2.48874 3.5087 3.0779C2.84584 3.66706 2.34302 4.41453 2.04717 5.25057M0.583008 11.6672V8.16724M0.583008 8.16724H4.08301M0.583008 8.16724L3.28967 10.7106C3.91661 11.3378 4.69223 11.796 5.54415 12.0425C6.39607 12.2889 7.29653 12.3155 8.16151 12.1198C9.02649 11.924 9.82779 11.5124 10.4907 10.9232C11.1535 10.3341 11.6563 9.58661 11.9522 8.75057" stroke="#898988" stroke-linecap="round" stroke-linejoin="round"/>
</svg>
