<svg width="55" height="55" viewBox="0 0 55 55" fill="none" xmlns="http://www.w3.org/2000/svg">
<path d="M21.5503 28.0001L19.0503 30.5001L20.0503 31.5C20.717 32.5 22.5503 34.7 24.5503 35.5C27.0503 36.5 29.0503 37 32.0503 37C35.0503 37 37.0503 35 38.5503 34C40.0503 33 43.5503 29 45.0503 27.5C46.5503 26 50.0503 23 51.5503 21C53.0503 19 53.5503 17.5 54.0503 14.5C54.5503 11.5 53.776 8.87612 52.0503 6C50.5503 3.5 48.0503 2 46.0503 1C44.4378 0.193774 41.0503 0 40.0503 0C39.0503 0 37.0503 0.5 35.0503 1.5C33.4503 2.3 31.717 3.83333 31.0503 4.5L21.0503 14.5C21.8836 14.3333 23.8503 14 25.0503 14C27.5503 14 28.8836 14.6667 30.0503 15L36.5503 8.5C38.0503 7 40.5503 6.5 42.5503 7C44.5503 7.5 45.5503 8.5 46.5503 10.5C47.5503 12.5 47.0503 14.5 46.5503 16C46.1503 17.2 44.0503 19 42.5503 20.5L33.5503 29C31.5503 30.5 29.5503 30 28.5503 29.5C26.7614 28.6056 26.0503 28.0001 25.0503 27.5001C24.0503 27.0001 22.0503 27.5001 21.5503 28.0001Z" fill="#58694C"/>
<path d="M24.0503 39C26.5503 40 30.0504 40.0004 32.5504 40.0004L27.0504 45.5004L21.5504 51.0004C19.0503 53 17.4504 53.6004 15.0504 54.0004C10.8003 54.7088 7.05029 53 4.55044 51.0004C2.89387 49.6754 -0.449669 46.5 0.050445 40.0004C0.328333 36.389 2.21704 33.5004 3.05033 32.5004L15.0504 20.5004C15.2171 20.3338 15.8503 19.8004 17.0503 19.0004C18.5503 18.0004 19.5503 18.0004 20.5503 17.5004C21.5503 17.0004 27.5503 17.0004 30.5503 19.0004C32.9503 20.6004 34.5503 22.6668 35.0503 23.5L33.0503 25.5C32.3837 26.3333 30.5503 27.6 28.5503 26C26.0503 24 24.5503 24 24.0503 24C23.5503 24 20.5503 24.5 19.0503 26L9.05033 36C7.88367 37.3333 6.05029 40.5 7.05033 42.5L7.05043 42.5002C8.35425 45.1077 9.05041 46.5 12.0503 47C14.4503 47.4 16.717 46.1667 17.5503 45.5L21.0504 42.0004C21.7172 41.3337 23.2504 39.7999 24.0503 39Z" fill="#58694C"/>
</svg>
