<svg width="21" height="21" viewBox="0 0 21 21" fill="none" xmlns="http://www.w3.org/2000/svg">
<path d="M10.5 11.375C10.9833 11.375 11.375 10.9832 11.375 10.5C11.375 10.0168 10.9833 9.625 10.5 9.625C10.0168 9.625 9.625 10.0168 9.625 10.5C9.625 10.9832 10.0168 11.375 10.5 11.375Z" fill="black"/>
<path d="M16.625 11.375C17.1083 11.375 17.5 10.9832 17.5 10.5C17.5 10.0168 17.1083 9.625 16.625 9.625C16.1418 9.625 15.75 10.0168 15.75 10.5C15.75 10.9832 16.1418 11.375 16.625 11.375Z" fill="black"/>
<path d="M4.375 11.375C4.85825 11.375 5.25 10.9832 5.25 10.5C5.25 10.0168 4.85825 9.625 4.375 9.625C3.89175 9.625 3.5 10.0168 3.5 10.5C3.5 10.9832 3.89175 11.375 4.375 11.375Z" fill="black"/>
<path d="M10.5 11.375C10.9833 11.375 11.375 10.9832 11.375 10.5C11.375 10.0168 10.9833 9.625 10.5 9.625C10.0168 9.625 9.625 10.0168 9.625 10.5C9.625 10.9832 10.0168 11.375 10.5 11.375Z" stroke="#1E1E1E" stroke-linecap="round" stroke-linejoin="round"/>
<path d="M16.625 11.375C17.1083 11.375 17.5 10.9832 17.5 10.5C17.5 10.0168 17.1083 9.625 16.625 9.625C16.1418 9.625 15.75 10.0168 15.75 10.5C15.75 10.9832 16.1418 11.375 16.625 11.375Z" stroke="#1E1E1E" stroke-linecap="round" stroke-linejoin="round"/>
<path d="M4.375 11.375C4.85825 11.375 5.25 10.9832 5.25 10.5C5.25 10.0168 4.85825 9.625 4.375 9.625C3.89175 9.625 3.5 10.0168 3.5 10.5C3.5 10.9832 3.89175 11.375 4.375 11.375Z" stroke="#1E1E1E" stroke-linecap="round" stroke-linejoin="round"/>
</svg>
