<svg width="16" height="16" viewBox="0 0 16 16" fill="none" xmlns="http://www.w3.org/2000/svg">
<path d="M7.99999 7.99935V1.33268C7.99999 1.14379 8.06388 0.98546 8.19166 0.857682C8.31943 0.729905 8.47777 0.666016 8.66666 0.666016C8.85555 0.666016 9.01388 0.729905 9.14166 0.857682C9.26943 0.98546 9.33332 1.14379 9.33332 1.33268V7.99935H7.99999ZM5.33332 7.99935V1.99935C5.33332 1.81046 5.39721 1.65213 5.52499 1.52435C5.65277 1.39657 5.8111 1.33268 5.99999 1.33268C6.18888 1.33268 6.34721 1.39657 6.47499 1.52435C6.60277 1.65213 6.66666 1.81046 6.66666 1.99935V7.99935H5.33332ZM8.33332 15.3327C6.75555 15.3327 5.41666 14.7827 4.31666 13.6827C3.21666 12.5827 2.66666 11.2438 2.66666 9.66602V3.33268C2.66666 3.14379 2.73055 2.98546 2.85832 2.85768C2.9861 2.7299 3.14443 2.66602 3.33332 2.66602C3.52221 2.66602 3.68055 2.7299 3.80832 2.85768C3.9361 2.98546 3.99999 3.14379 3.99999 3.33268V9.66602C3.99999 10.8771 4.41943 11.9021 5.25832 12.741C6.09721 13.5799 7.12221 13.9993 8.33332 13.9993C9.54443 13.9993 10.5694 13.5799 11.4083 12.741C12.2472 11.9021 12.6667 10.8771 12.6667 9.66602V7.33268C12.4778 7.33268 12.3194 7.39657 12.1917 7.52435C12.0639 7.65213 12 7.81046 12 7.99935V10.666H9.99999C9.63332 10.666 9.31943 10.7966 9.05832 11.0577C8.79721 11.3188 8.66666 11.6327 8.66666 11.9993V12.666H7.33332V11.9993C7.33332 11.266 7.59443 10.6382 8.11666 10.116C8.63888 9.59379 9.26666 9.33268 9.99999 9.33268H10.6667V2.66602C10.6667 2.47713 10.7305 2.31879 10.8583 2.19102C10.9861 2.06324 11.1444 1.99935 11.3333 1.99935C11.5222 1.99935 11.6805 2.06324 11.8083 2.19102C11.9361 2.31879 12 2.47713 12 2.66602V6.11602C12.1111 6.08268 12.2194 6.0549 12.325 6.03268C12.4305 6.01046 12.5444 5.99935 12.6667 5.99935H14V9.66602C14 11.2438 13.45 12.5827 12.35 13.6827C11.25 14.7827 9.9111 15.3327 8.33332 15.3327Z" fill="#1D1B20"/>
</svg>
