<svg width="16" height="16" viewBox="0 0 16 16" fill="none" xmlns="http://www.w3.org/2000/svg">
<path d="M8 8.00033V1.33366C8 1.14477 8.06389 0.986437 8.19167 0.858659C8.31945 0.730881 8.47778 0.666992 8.66667 0.666992C8.85556 0.666992 9.01389 0.730881 9.14167 0.858659C9.26945 0.986437 9.33334 1.14477 9.33334 1.33366V8.00033H8ZM5.33334 8.00033V2.00033C5.33334 1.81144 5.39723 1.6531 5.525 1.52533C5.65278 1.39755 5.81112 1.33366 6 1.33366C6.18889 1.33366 6.34723 1.39755 6.475 1.52533C6.60278 1.6531 6.66667 1.81144 6.66667 2.00033V8.00033H5.33334ZM8.33334 15.3337C6.75556 15.3337 5.41667 14.7837 4.31667 13.6837C3.21667 12.5837 2.66667 11.2448 2.66667 9.66699V3.33366C2.66667 3.14477 2.73056 2.98644 2.85834 2.85866C2.98612 2.73088 3.14445 2.66699 3.33334 2.66699C3.52223 2.66699 3.68056 2.73088 3.80834 2.85866C3.93612 2.98644 4.00001 3.14477 4.00001 3.33366V9.66699C4.00001 10.8781 4.41945 11.9031 5.25834 12.742C6.09723 13.5809 7.12223 14.0003 8.33334 14.0003C9.54445 14.0003 10.5694 13.5809 11.4083 12.742C12.2472 11.9031 12.6667 10.8781 12.6667 9.66699V7.33366C12.4778 7.33366 12.3194 7.39755 12.1917 7.52533C12.0639 7.6531 12 7.81144 12 8.00033V10.667H10C9.63334 10.667 9.31945 10.7975 9.05834 11.0587C8.79723 11.3198 8.66667 11.6337 8.66667 12.0003V12.667H7.33334V12.0003C7.33334 11.267 7.59445 10.6392 8.11667 10.117C8.63889 9.59477 9.26667 9.33366 10 9.33366H10.6667V2.66699C10.6667 2.4781 10.7306 2.31977 10.8583 2.19199C10.9861 2.06421 11.1444 2.00033 11.3333 2.00033C11.5222 2.00033 11.6806 2.06421 11.8083 2.19199C11.9361 2.31977 12 2.4781 12 2.66699V6.11699C12.1111 6.08366 12.2194 6.05588 12.325 6.03366C12.4306 6.01144 12.5444 6.00033 12.6667 6.00033H14V9.66699C14 11.2448 13.45 12.5837 12.35 13.6837C11.25 14.7837 9.91112 15.3337 8.33334 15.3337Z" fill="#E94E1B"/>
</svg>
