<svg width="11" height="11" viewBox="0 0 11 11" fill="none" xmlns="http://www.w3.org/2000/svg">
<g clip-path="url(#clip0_1177_999)">
<path d="M5.04169 1.8336H1.83335C1.59024 1.8336 1.35708 1.93018 1.18517 2.10209C1.01326 2.27399 0.916687 2.50715 0.916687 2.75027V9.16693C0.916687 9.41005 1.01326 9.64321 1.18517 9.81511C1.35708 9.98702 1.59024 10.0836 1.83335 10.0836H8.25002C8.49314 10.0836 8.72629 9.98702 8.8982 9.81511C9.07011 9.64321 9.16669 9.41005 9.16669 9.16693V5.9586M8.47919 1.1461C8.66152 0.963764 8.90882 0.861328 9.16669 0.861328C9.42455 0.861328 9.67185 0.963764 9.85419 1.1461C10.0365 1.32844 10.139 1.57574 10.139 1.8336C10.139 2.09146 10.0365 2.33876 9.85419 2.5211L5.50002 6.87527L3.66669 7.3336L4.12502 5.50027L8.47919 1.1461Z" stroke="#1E1E1E" stroke-linecap="round" stroke-linejoin="round"/>
</g>
<defs>
<clipPath id="clip0_1177_999">
<rect width="11" height="11" fill="white"/>
</clipPath>
</defs>
</svg>
