<svg width="60" height="60" viewBox="0 0 60 60" fill="none" xmlns="http://www.w3.org/2000/svg">
<rect x="1" y="1" width="58" height="58" rx="6" fill="white" stroke="#1576BD" stroke-width="2"/>
<rect x="4" y="4" width="52" height="52" rx="5" fill="#1576BD"/>
<path d="M17.0341 47V12.0909H30.8068C33.4545 12.0909 35.7102 12.5966 37.5739 13.608C39.4375 14.608 40.858 16 41.8352 17.7841C42.8239 19.5568 43.3182 21.6023 43.3182 23.9205C43.3182 26.2386 42.8182 28.2841 41.8182 30.0568C40.8182 31.8295 39.3693 33.2102 37.4716 34.1989C35.5852 35.1875 33.3011 35.6818 30.6193 35.6818H21.8409V29.767H29.4261C30.8466 29.767 32.017 29.5227 32.9375 29.0341C33.8693 28.5341 34.5625 27.8466 35.017 26.9716C35.483 26.0852 35.7159 25.0682 35.7159 23.9205C35.7159 22.7614 35.483 21.75 35.017 20.8864C34.5625 20.0114 33.8693 19.3352 32.9375 18.858C32.0057 18.3693 30.8239 18.125 29.392 18.125H24.4148V47H17.0341Z" fill="white"/>
</svg>
