<svg width="17" height="17" viewBox="0 0 17 17" fill="none" xmlns="http://www.w3.org/2000/svg">
<path d="M6.172 6.1C6.36008 5.56533 6.73132 5.11449 7.21996 4.82731C7.70861 4.54013 8.28312 4.43515 8.84174 4.53097C9.40037 4.62679 9.90705 4.91722 10.2721 5.35082C10.6371 5.78443 10.8368 6.33322 10.836 6.9C10.836 8.5 8.436 9.3 8.436 9.3M8.5 12.5H8.508M16.5 8.5C16.5 12.9183 12.9183 16.5 8.5 16.5C4.08172 16.5 0.5 12.9183 0.5 8.5C0.5 4.08172 4.08172 0.5 8.5 0.5C12.9183 0.5 16.5 4.08172 16.5 8.5Z" stroke="black" stroke-linecap="round" stroke-linejoin="round"/>
</svg>
