<svg width="16" height="16" viewBox="0 0 16 16" fill="none" xmlns="http://www.w3.org/2000/svg">
<path d="M0 5H5V15.5C5 15.7761 4.77614 16 4.5 16H0.5C0.223858 16 0 15.7761 0 15.5V5Z" fill="black"/>
<path d="M5 5L5 0L15.5 -4.5897e-07C15.7761 -4.7104e-07 16 0.223857 16 0.5L16 4.5C16 4.77614 15.7761 5 15.5 5L5 5Z" fill="black"/>
<path d="M9 4.5C9 3.60998 8.73608 2.73996 8.24161 1.99993C7.74715 1.25991 7.04434 0.683136 6.22208 0.342542C5.39981 0.00194775 4.49501 -0.0871673 3.62209 0.0864662C2.74918 0.2601 1.94736 0.688683 1.31802 1.31802C0.688683 1.94736 0.2601 2.74918 0.0864662 3.62209C-0.0871673 4.49501 0.00194776 5.39981 0.342542 6.22208C0.683136 7.04434 1.25991 7.74715 1.99993 8.24161C2.73996 8.73608 3.60998 9 4.5 9L4.5 4.5H9Z" fill="black"/>
<rect x="4" y="4" width="1" height="1" fill="black"/>
</svg>
