<svg width="12" height="8" viewBox="0 0 12 8" fill="none" xmlns="http://www.w3.org/2000/svg">
<path d="M11.8536 3.32809C12.0488 3.52335 12.0488 3.83993 11.8536 4.03519L8.67157 7.21717C8.47631 7.41244 8.15973 7.41244 7.96447 7.21717C7.7692 7.02191 7.7692 6.70533 7.96447 6.51007L10.7929 3.68164L7.96447 0.853214C7.7692 0.657951 7.7692 0.341369 7.96447 0.146107C8.15973 -0.0491555 8.47631 -0.0491555 8.67157 0.146107L11.8536 3.32809ZM11.5 3.68164V4.18164H2.5V3.68164V3.18164H11.5V3.68164ZM2.5 3.68164V4.18164C2.17839 4.18164 1.95051 4.23549 1.78367 4.32144C1.62308 4.40417 1.48834 4.53219 1.37458 4.73696C1.12966 5.17782 1 5.93747 1 7.18164H0.5H0C0 5.92581 0.120342 4.93546 0.500422 4.25132C0.699162 3.89359 0.970674 3.61536 1.32571 3.43247C1.67449 3.25279 2.07161 3.18164 2.5 3.18164V3.68164Z" fill="black"/>
</svg>
