<svg width="130" height="130" viewBox="0 0 130 130" fill="none" xmlns="http://www.w3.org/2000/svg">
<path d="M99.6508 125.667L3.38387 29.8791C2.2073 28.7084 2.20493 26.8048 3.37857 25.6312L25.6306 3.37913C26.8022 2.20756 28.7017 2.20756 29.8733 3.37913L126.11 99.6162C127.29 100.796 127.281 102.711 126.09 103.879L103.868 125.682C102.695 126.832 100.815 126.826 99.6508 125.667Z" stroke="black" stroke-width="5"/>
<path d="M24.752 24.7578L37.252 12.2578M44.752 44.7578L57.252 32.2578M64.752 64.7578L77.252 52.2578M84.752 84.7578L97.252 72.2578M104.752 104.758L117.252 92.2578M100.252 89.2578L106.752 82.7578M80.252 69.2578L86.752 62.7578M60.252 49.2578L66.752 42.7578M40.252 29.2578L46.752 22.7578" stroke="black" stroke-width="5" stroke-linecap="round"/>
</svg>
