<svg width="14" height="11" viewBox="0 0 14 11" fill="none" xmlns="http://www.w3.org/2000/svg">
<g clip-path="url(#clip0_1178_1040)">
<path d="M7.79167 9.625V5.95833H3.20833V9.625M3.20833 1.375V3.66667H6.875M8.70833 9.625H2.29167C2.04855 9.625 1.81539 9.52842 1.64349 9.35651C1.47158 9.18461 1.375 8.95145 1.375 8.70833V2.29167C1.375 2.04855 1.47158 1.81539 1.64349 1.64349C1.81539 1.47158 2.04855 1.375 2.29167 1.375H7.33333L9.625 3.66667V8.70833C9.625 8.95145 9.52842 9.18461 9.35651 9.35651C9.18461 9.52842 8.95145 9.625 8.70833 9.625Z" stroke="#1E1E1E" stroke-linecap="round" stroke-linejoin="round"/>
</g>
<g clip-path="url(#clip1_1178_1040)">
<path d="M11.875 3.5C12.0281 3.5 12.1775 3.52922 12.3193 3.58594C12.4675 3.64525 12.597 3.73518 12.7061 3.85059L13.165 4.31641H13.1641C13.2793 4.42707 13.3682 4.55923 13.4238 4.71094C13.4733 4.84579 13.5 4.988 13.5 5.13379C13.4999 5.28101 13.4744 5.42571 13.4219 5.56445C13.364 5.71713 13.274 5.85001 13.1621 5.96191L8.62402 10.5H6.5V8.37598L6.64648 8.22949L11.0469 3.83789L11.0547 3.83008L11.0625 3.82324C11.1706 3.7242 11.2932 3.64437 11.4297 3.58789C11.572 3.52899 11.7219 3.5 11.875 3.5Z" fill="#1D1B20" stroke="white"/>
</g>
<defs>
<clipPath id="clip0_1178_1040">
<rect width="11" height="11" fill="white"/>
</clipPath>
<clipPath id="clip1_1178_1040">
<rect width="8" height="8" fill="white" transform="translate(6 3)"/>
</clipPath>
</defs>
</svg>
