<svg width="12" height="8" viewBox="0 0 12 8" fill="none" xmlns="http://www.w3.org/2000/svg">
<path d="M0.146447 3.32809C-0.0488155 3.52335 -0.0488155 3.83993 0.146447 4.03519L3.32843 7.21717C3.52369 7.41244 3.84027 7.41244 4.03553 7.21717C4.2308 7.02191 4.2308 6.70533 4.03553 6.51007L1.20711 3.68164L4.03553 0.853214C4.2308 0.657951 4.2308 0.341369 4.03553 0.146107C3.84027 -0.0491555 3.52369 -0.0491555 3.32843 0.146107L0.146447 3.32809ZM0.5 3.68164V4.18164H9.5V3.68164V3.18164H0.5V3.68164ZM9.5 3.68164V4.18164C9.82161 4.18164 10.0495 4.23549 10.2163 4.32144C10.3769 4.40417 10.5117 4.53219 10.6254 4.73696C10.8703 5.17782 11 5.93747 11 7.18164H11.5H12C12 5.92581 11.8797 4.93546 11.4996 4.25132C11.3008 3.89359 11.0293 3.61536 10.6743 3.43247C10.3255 3.25279 9.92839 3.18164 9.5 3.18164V3.68164Z" fill="black"/>
</svg>
